<svg xmlns="http://www.w3.org/2000/svg" enable-background="new 0 0 32 32" viewBox="0 0 32 32"><path d="M1 2v11.50879c0 .55273.44775 1 1 1h11.50879c.55225 0 1-.44727 1-1V2c0-.55273-.44775-1-1-1H2C1.44775 1 1 1.44727 1 2zM3 3h9.50879v9.50879H3V3zM30 1H18.49121c-.55225 0-1 .44727-1 1v11.50879c0 .55273.44775 1 1 1H30c.55225 0 1-.44727 1-1V2C31 1.44727 30.55225 1 30 1zM29 12.50879h-9.50879V3H29V12.50879zM14.50879 30V18.49121c0-.55273-.44775-1-1-1H2c-.55225 0-1 .44727-1 1V30c0 .55273.44775 1 1 1h11.50879C14.06104 31 14.50879 30.55273 14.50879 30zM12.50879 29H3v-9.50879h9.50879V29zM30 17.49121H18.49121c-.55225 0-1 .44727-1 1V30c0 .55273.44775 1 1 1H30c.55225 0 1-.44727 1-1V18.49121C31 17.93848 30.55225 17.49121 30 17.49121zM29 29h-9.50879v-9.50879H29V29z"/></svg>